<svg xmlns="http://www.w3.org/2000/svg" viewBox="0 0 21.38 21.38"><defs><style>.cls-1{fill:#fff;fill-rule:evenodd;}</style></defs><g id="Layer_2" data-name="Layer 2"><g id="Layer_1-2" data-name="Layer 1"><path id="Path_3" data-name="Path 3" class="cls-1" d="M10.69,1.92A33.84,33.84,0,0,1,15,2a5.33,5.33,0,0,1,2,.36,4.16,4.16,0,0,1,2,2,5.53,5.53,0,0,1,.35,2c0,1.07.12,1.42.12,4.27A33.84,33.84,0,0,1,19.34,15,5.53,5.53,0,0,1,19,17a4.22,4.22,0,0,1-2,2,5.53,5.53,0,0,1-2,.35c-1.07,0-1.43.12-4.27.12a33.84,33.84,0,0,1-4.27-.12,5.49,5.49,0,0,1-2-.35,4.22,4.22,0,0,1-2-2A5.53,5.53,0,0,1,2,15c0-1.07-.12-1.43-.12-4.27A30.46,30.46,0,0,1,2,6.42a5.49,5.49,0,0,1,.35-2,4.47,4.47,0,0,1,.83-1.19,2,2,0,0,1,1.19-.83,5.49,5.49,0,0,1,2-.35,33.84,33.84,0,0,1,4.27-.12m0-1.9A35.76,35.76,0,0,0,6.3.14,7.22,7.22,0,0,0,3.7.62,4.59,4.59,0,0,0,1.8,1.8,4.68,4.68,0,0,0,.61,3.7,5.42,5.42,0,0,0,.14,6.3,35.76,35.76,0,0,0,0,10.69a35.55,35.55,0,0,0,.12,4.38,7.27,7.27,0,0,0,.48,2.61,4.65,4.65,0,0,0,1.18,1.9,4.68,4.68,0,0,0,1.9,1.19,7.48,7.48,0,0,0,2.61.47,35.55,35.55,0,0,0,4.38.12,35.76,35.76,0,0,0,4.39-.12,7.43,7.43,0,0,0,2.6-.47,5,5,0,0,0,3.09-3.08,7.53,7.53,0,0,0,.47-2.61c0-1.19.12-1.54.12-4.39a35.6,35.6,0,0,0-.12-4.38,7.48,7.48,0,0,0-.47-2.61,4.78,4.78,0,0,0-1.19-1.9A4.65,4.65,0,0,0,17.68.62,7.27,7.27,0,0,0,15.07.14,35.55,35.55,0,0,0,10.69,0m0,5.22a5.36,5.36,0,0,0-5.45,5.27v.18a5.45,5.45,0,1,0,5.45-5.45h0m0,9a3.49,3.49,0,0,1-3.56-3.42v-.13a3.5,3.5,0,0,1,3.43-3.56h.13a3.5,3.5,0,0,1,3.56,3.43v.13a3.49,3.49,0,0,1-3.43,3.55h-.13M16.38,3.7A1.3,1.3,0,1,0,17.68,5h0a1.31,1.31,0,0,0-1.3-1.3"/></g></g></svg>