<svg xmlns="http://www.w3.org/2000/svg" viewBox="0 0 120 24"><defs><style>.cls-1{fill:none;}.cls-2{fill:#fcfcfc;}</style></defs><g id="Layer_2" data-name="Layer 2"><g id="Layer_1-2" data-name="Layer 1"><g id="Layer_1-2-2" data-name="Layer 1-2"><path class="cls-1" d="M96,0h24V24H96Z"/><path class="cls-2" d="M108,7.1l1.4,4.5h4.1L110.2,14l1.4,4.4L108,15.7l-3.5,2.7,1.3-4.4-3.3-2.4h4.1L108,7.1M108,2l-2.4,8H98l6.2,4.4L101.8,22l6.2-4.7,6.2,4.7-2.4-7.6L118,10h-7.6Z"/><path class="cls-1" d="M0,0H24V24H0Z"/><path class="cls-2" d="M12,2,9.6,10H2l6.2,4.4L5.8,22,12,17.3,18.2,22l-2.4-7.6L22,10H14.4Z"/><path class="cls-1" d="M24,0H48V24H24Z"/><path class="cls-2" d="M36,2l-2.4,8H26l6.2,4.4L29.8,22,36,17.3,42.2,22l-2.4-7.6L46,10H38.4Z"/><path class="cls-1" d="M48,0H72V24H48Z"/><path class="cls-2" d="M60,2l-2.4,8H50l6.2,4.4L53.8,22,60,17.3,66.2,22l-2.4-7.6L70,10H62.4Z"/><path class="cls-1" d="M72,0H96V24H72Z"/><path class="cls-2" d="M84,2l-2.4,8H74l6.2,4.4L77.8,22,84,17.3,90.2,22l-2.4-7.6L94,10H86.4Z"/></g></g></g></svg>