<svg xmlns="http://www.w3.org/2000/svg" viewBox="0 0 18.9 21.75"><defs><style>.cls-1{fill:#fff;}</style></defs><g id="Layer_2" data-name="Layer 2"><g id="Layer_1-2" data-name="Layer 1"><path id="tiktok" class="cls-1" d="M9.93,0c1.18,0,2.36,0,3.54,0a5.69,5.69,0,0,0,1.58,3.78A6.47,6.47,0,0,0,18.9,5.4V9.05a9.82,9.82,0,0,1-3.81-.87,11.12,11.12,0,0,1-1.46-.85c0,2.65,0,5.29,0,7.93a6.92,6.92,0,0,1-1.22,3.57A6.76,6.76,0,0,1,7,21.74a6.57,6.57,0,0,1-3.7-.93A6.83,6.83,0,0,1,0,15.63c0-.45,0-.9,0-1.35A6.82,6.82,0,0,1,7.47,8.17a3.4,3.4,0,0,1,.46.06c0,1.34,0,2.68,0,4a3.11,3.11,0,0,0-4,1.91h0a3.8,3.8,0,0,0-.13,1.46A3.08,3.08,0,0,0,7,18.23a3,3,0,0,0,2.51-1.46,2.05,2.05,0,0,0,.37-1c.09-1.62.05-3.23.06-4.86,0-3.65,0-7.3,0-10.93Z"/></g></g></svg>