<svg xmlns="http://www.w3.org/2000/svg" viewBox="0 0 21.33 17.3"><defs><style>.cls-1{fill:#fff;fill-rule:evenodd;}</style></defs><g id="Layer_2" data-name="Layer 2"><g id="Layer_1-2" data-name="Layer 1"><path id="Path_2" data-name="Path 2" class="cls-1" d="M6.76,17.3A12.33,12.33,0,0,0,19.2,5.08V4.27A9.48,9.48,0,0,0,21.33,2a10.15,10.15,0,0,1-2.49.71A4.58,4.58,0,0,0,20.74.36,11,11,0,0,1,18,1.42,4.25,4.25,0,0,0,14.81,0a4.46,4.46,0,0,0-4.38,4.39,2.14,2.14,0,0,0,.12.94,12.25,12.25,0,0,1-9-4.62A4.56,4.56,0,0,0,1,3a4.69,4.69,0,0,0,1.9,3.68,4,4,0,0,1-2-.6h0a4.33,4.33,0,0,0,3.56,4.27,3.39,3.39,0,0,1-1.18.12,1.93,1.93,0,0,1-.83-.12,4.48,4.48,0,0,0,4.14,3.08,8.89,8.89,0,0,1-5.45,1.9A3.23,3.23,0,0,1,0,15.17,11.21,11.21,0,0,0,6.76,17.3"/></g></g></svg>