<svg xmlns="http://www.w3.org/2000/svg" viewBox="0 0 24 16.91"><defs><style>.cls-1{fill:#fff;}</style></defs><g id="Layer_2" data-name="Layer 2"><g id="Layer_1-2" data-name="Layer 1"><path id="youtube" class="cls-1" d="M23.5,2.64A3,3,0,0,0,21.38.51C19.5,0,12,0,12,0S4.5,0,2.62.51A3,3,0,0,0,.5,2.64,32.41,32.41,0,0,0,0,8.45a32.44,32.44,0,0,0,.5,5.82,3.05,3.05,0,0,0,2.12,2.14c1.88.5,9.38.5,9.38.5s7.51,0,9.38-.5a3,3,0,0,0,2.12-2.14A31.55,31.55,0,0,0,24,8.45,31.52,31.52,0,0,0,23.5,2.64ZM9.55,12V4.89l6.27,3.56Z"/></g></g></svg>